<svg width="71" height="26" viewBox="0 0 71 26" fill="none" xmlns="http://www.w3.org/2000/svg">
<path fill-rule="evenodd" clip-rule="evenodd" d="M12.8031 1.41593C12.8031 1.41593 12.0181 3.03886 11.6649 3.86833C11.5127 4.21325 11.4377 4.58709 11.4451 4.96385C11.4617 5.33058 11.478 5.69736 11.4943 6.06417L11.4945 6.06789C11.6066 8.58948 11.7188 11.1122 11.9051 13.6279C12.1218 16.5654 13.5724 18.7095 16.3009 19.9474C18.2084 20.8129 20.2258 21.2073 22.2981 21.3262C24.9089 21.4749 27.526 21.5516 30.1399 21.5735C34.4855 21.6111 38.7981 21.3028 43.0526 20.4529C44.3635 20.2824 48.4642 19.2244 49.1754 18.8394C49.8539 18.472 49.9191 18.4902 50.4143 18.6281C50.5035 18.6529 50.6065 18.6816 50.7296 18.7126C52.6858 19.2072 57.8509 19.0851 59.3376 18.6485L59.4862 18.6047C60.4221 18.3296 61.2531 18.0854 61.4648 17.4387C62.3785 18.8738 62.8888 19.6031 64.4634 19.4623C65.762 19.3461 66.0793 19.2736 67.0162 19.0595C67.2154 19.014 67.4426 18.9621 67.7132 18.902C69.0005 18.6172 69.9503 17.7893 70.3365 16.5372C70.5152 15.9611 70.5436 15.6083 70.5742 15.2284L70.5742 15.2279C70.5848 15.0971 70.5956 14.9631 70.6129 14.8157C70.8515 12.7671 70.5328 10.8249 69.3475 9.10179C69.3318 9.07914 69.3166 9.05649 69.3016 9.03403C69.1323 8.78186 68.9786 8.55292 68.3616 8.59315C68.1512 8.60567 67.8372 8.91868 67.7085 9.17065C67.5068 9.56476 67.3305 9.97137 67.1539 10.3789L67.1539 10.379C66.9882 10.7612 66.8223 11.1441 66.6346 11.5182C66.4164 11.9501 66.5153 12.2569 66.856 12.5699C67.5797 13.2303 68.247 13.8876 69.1513 14.7985C68.3542 14.8823 67.7986 14.9668 67.2851 15.0448C66.6862 15.1358 66.1447 15.2182 65.3442 15.2805C63.8574 15.3963 61.132 15.3744 60.3675 14.0285L60.2921 13.8964C59.773 12.9856 59.4045 12.3391 58.5369 11.6997C57.0219 10.5823 54.5728 10.5901 52.5272 11.6418C51.6025 12.1113 50.6291 13.0504 50.4706 14.1459C50.3999 14.6389 50.2304 15.0458 49.6731 15.1882C41.1954 17.3589 31.2624 18.373 22.9166 17.4418C20.7909 17.2039 18.6778 16.8549 16.6714 16.0724C14.877 15.376 14.0669 14.1396 14.0999 12.2068C14.1513 9.1409 14.1305 6.07499 14.1096 3.00908C14.1063 2.51455 14.1029 2.02001 14.0999 1.52548C14.1087 1.43289 14.0986 1.33948 14.0702 1.25088C14.0418 1.16228 13.9957 1.08034 13.9347 1.00999C13.8736 0.939644 13.7989 0.882351 13.7151 0.841568C13.6312 0.800785 13.54 0.777358 13.4468 0.7727C13.1721 0.749225 12.8031 1.41593 12.8031 1.41593ZM58.6421 16.2023L51.7093 16.1194C51.7093 16.1194 52.2226 13.3884 55.0438 13.282C59.1037 13.1364 58.6421 16.2023 58.6421 16.2023ZM68.7284 2.7478L68.6687 2.68833C68.4742 2.49413 68.2432 2.34006 67.9889 2.23494C67.7346 2.12982 67.462 2.07572 67.1867 2.07572C66.9114 2.07572 66.6388 2.12982 66.3845 2.23494C66.1302 2.34006 65.8992 2.49413 65.7047 2.68833C65.5101 2.88221 65.3557 3.1124 65.2504 3.36577C65.1451 3.61913 65.0909 3.89069 65.0909 4.16494C65.0909 4.43919 65.1451 4.71075 65.2504 4.96411C65.3557 5.21747 65.5101 5.44766 65.7047 5.64154L65.7659 5.70258C66.9496 6.88261 68.2778 6.15174 68.7284 5.70258C68.9232 5.50867 69.0777 5.27838 69.1832 5.02487C69.2886 4.77137 69.3429 4.49963 69.3429 4.22519C69.3429 3.95076 69.2886 3.67901 69.1832 3.42551C69.0777 3.172 68.9232 2.94171 68.7284 2.7478ZM7.83374 8.70587C7.57313 8.70587 7.19478 8.97192 7.05976 9.22233C6.83783 9.64378 6.64855 10.0811 6.45926 10.5184C6.29639 10.8946 6.13351 11.2709 5.94982 11.6372C5.73631 12.0613 5.83364 12.3133 6.13821 12.6497C6.23562 12.7583 6.33347 12.8667 6.4314 12.9753C7.151 13.7727 7.87536 14.5755 8.46956 15.4668C9.27651 16.6719 9.16818 17.9568 8.13831 18.9662C7.3545 19.746 6.44824 20.3931 5.45529 20.8818C4.55873 21.306 3.61601 21.6307 2.67195 21.9558L2.67191 21.9559L2.67187 21.9559C2.11824 22.1466 1.56416 22.3374 1.01865 22.5486C0.814558 22.6268 0.495861 22.8913 0.469172 23.065C0.384395 23.6096 0.687393 23.7708 0.891484 23.8585C2.14274 24.4003 3.40934 24.9107 4.70507 25.4329L4.70517 25.4329L4.70519 25.4329L4.70521 25.4329L4.70523 25.4329C5.16849 25.6196 5.63547 25.8078 6.10681 25.9994C6.29199 25.7208 6.47815 25.4484 6.66241 25.1788L6.66248 25.1787C7.0515 24.6096 7.43207 24.0528 7.77722 23.475C10.5262 18.8786 11.1306 14.1428 8.60615 9.2458C8.47427 8.98914 8.1022 8.71056 7.83374 8.70587ZM59.5313 3.55216C59.6426 3.28194 59.807 3.03664 60.0148 2.83068L60.0776 2.76495C60.2837 2.55939 60.5285 2.39632 60.7979 2.28507C61.0672 2.17382 61.356 2.11655 61.6475 2.11655C61.9391 2.11655 62.2278 2.17382 62.4972 2.28507C62.7666 2.39632 63.0113 2.55939 63.2175 2.76495C63.6963 3.24385 64.4734 4.64299 63.2175 5.89501L63.1531 5.95918C63.0209 6.09096 62.872 6.20512 62.7104 6.29879L59.5313 3.55216ZM3.28042 1.47081C3.30912 1.55962 3.31937 1.65333 3.31055 1.74622C3.32311 4.29565 3.32468 13.16 3.28543 15.0427C3.26279 16.0038 3.02529 16.9613 2.7867 17.9232C2.67797 18.3615 2.56901 18.8007 2.48006 19.2417H1.32772C1.30239 18.7434 1.27633 18.2492 1.2504 17.7576C1.21044 16.9999 1.1708 16.2483 1.13462 15.4966C1.03729 13.4777 0.941519 11.4598 0.847323 9.44303C0.794338 8.37842 0.746651 7.31381 0.698964 6.2492C0.683069 5.89433 0.667173 5.53946 0.651081 5.18459C0.64368 4.80784 0.718682 4.434 0.870872 4.08907C1.22411 3.26117 2.00908 1.63667 2.00908 1.63667C2.00908 1.63667 2.37173 0.971528 2.65275 0.995003C2.74627 0.998838 2.83802 1.02162 2.92242 1.06197C3.00681 1.10231 3.08208 1.15937 3.14363 1.22966C3.20518 1.29995 3.25172 1.382 3.28042 1.47081Z" fill="white"/>
</svg>
